<svg width="19" height="18" viewBox="0 0 19 18" fill="none" xmlns="http://www.w3.org/2000/svg">
<g clip-path="url(#clip0_1951_14233)">
<path d="M12.7289 11.4096C14.2496 12.4684 15.6917 13.548 17.2034 14.5019C18.6868 15.4365 18.4303 16.7521 17.1287 17.7653C16.5835 18.1891 15.8695 18.0248 15.3412 17.4092C14.2071 16.0894 13.0846 14.7586 11.9595 13.432C11.8164 13.2636 11.6824 13.0869 11.52 12.8826C9.7338 14.3542 7.78778 14.9505 5.61752 14.4715C4.02592 14.1209 2.71783 13.2374 1.69843 11.8817C-0.344243 9.16497 -0.268207 5.17264 1.86854 2.53731C4.04009 -0.144949 7.66406 -0.78825 10.5251 1.02845C12.1966 2.09004 13.2547 3.66516 13.6838 5.69446C14.1117 7.71547 13.7483 9.61224 12.7289 11.4096ZM7.02742 1.48815C4.01045 1.48815 1.58888 4.09311 1.59275 7.33032C1.59662 10.5579 4.01818 13.1421 7.05062 13.1545C10.0483 13.167 12.4853 10.5427 12.4814 7.30409C12.4776 4.06412 10.0624 1.48677 7.02871 1.48677L7.02742 1.48815Z" fill="#D7E3FF"/>
<path d="M10.1814 7.13015C10.1814 7.98052 10.1814 8.83227 10.1814 9.68265C10.1814 10.0982 10.2561 10.522 9.62979 10.5109C9.0447 10.5013 9.11042 10.1092 9.11042 9.71716C9.11042 7.99295 9.11042 6.26735 9.11042 4.54314C9.11042 4.12762 9.0331 3.719 9.6633 3.72728C10.26 3.73418 10.1814 4.1221 10.1814 4.50863C10.1814 5.38247 10.1814 6.25631 10.1814 7.13015Z" fill="#D7E3FF"/>
<path d="M8.79225 7.61331C8.79225 8.37119 8.77808 9.12907 8.79612 9.88557C8.80643 10.3163 8.67627 10.5164 8.24454 10.5082C7.85662 10.5013 7.70841 10.3384 7.71099 9.93113C7.72001 8.39328 7.72388 6.85543 7.71099 5.31758C7.70712 4.87445 7.91204 4.77368 8.26773 4.7723C8.64147 4.77091 8.81159 4.91448 8.7987 5.34105C8.7755 6.09755 8.79225 6.85543 8.79225 7.61331Z" fill="#D7E3FF"/>
<path d="M7.3938 8.19173C7.3938 8.76601 7.3822 9.34167 7.39896 9.91594C7.41056 10.3121 7.29843 10.5095 6.89119 10.5082C6.51616 10.5082 6.33316 10.3853 6.33703 9.96012C6.34734 8.76463 6.3512 7.56914 6.33703 6.37227C6.33187 5.94294 6.50585 5.82284 6.88217 5.82146C7.27653 5.82146 7.41571 5.98297 7.40025 6.39711C7.37834 6.99348 7.39509 7.59261 7.39509 8.19035L7.3938 8.19173Z" fill="#D7E3FF"/>
<path d="M5.99614 8.69285C5.99614 9.10423 5.98325 9.51699 6 9.92699C6.01547 10.3232 5.89432 10.5123 5.48966 10.5068C5.11978 10.5013 4.93678 10.3922 4.9458 9.96012C4.96385 9.11527 4.969 8.26766 4.9458 7.42281C4.9342 6.97968 5.12881 6.88719 5.48966 6.88305C5.88015 6.87891 6.02449 7.0487 6.00258 7.45732C5.98067 7.86732 5.99742 8.28009 5.99742 8.69147H5.99485L5.99614 8.69285Z" fill="#D7E3FF"/>
<path d="M3.554 9.21052C3.554 9.00483 3.5656 8.79914 3.55013 8.59483C3.51791 8.16826 3.59911 7.90597 4.09141 7.91288C4.54634 7.9184 4.62237 8.1586 4.60949 8.55756C4.59402 9.01311 4.59016 9.47005 4.60949 9.92561C4.62753 10.3798 4.43164 10.5137 4.02955 10.5095C3.60297 10.5054 3.53596 10.2624 3.55271 9.89524C3.56431 9.66746 3.55529 9.43968 3.554 9.21052Z" fill="#D7E3FF"/>
</g>
<defs>
<clipPath id="clip0_1951_14233">
<rect width="18" height="18" fill="white" transform="translate(0.213867)"/>
</clipPath>
</defs>
</svg>
